<?xml version="1.0" standalone="no"?>
<!DOCTYPE svg PUBLIC "-//W3C//DTD SVG 20010904//EN"
 "http://www.w3.org/TR/2001/REC-SVG-20010904/DTD/svg10.dtd">
<svg version="1.0" xmlns="http://www.w3.org/2000/svg"
 width="148.000000pt" height="148.000000pt" viewBox="0 0 148.000000 148.000000"
 preserveAspectRatio="xMidYMid meet">
<metadata>
Created by potrace 1.11, written by Peter Selinger 2001-2013
</metadata>
<g transform="translate(0.000000,148.000000) scale(0.100000,-0.100000)"
fill="#000000" stroke="none">
<path d="M90 739 l0 -170 33 3 c34 3 34 2 36 85 l1 51 98 0 c53 1 111 1 129 1
24 1 42 11 72 43 l41 42 -58 58 -57 57 -147 1 -148 0 0 -171z m246 102 c13 -1
64 -47 64 -58 0 -5 -54 -8 -120 -8 -118 0 -120 0 -120 22 0 13 0 26 0 31 -1
13 75 18 176 13z"/>
<path d="M550 876 l0 -35 125 1 125 1 30 -33 c16 -18 30 -33 30 -34 0 -1 -39
-1 -87 -1 -49 1 -93 0 -99 -2 -6 -2 -11 -17 -11 -33 0 -17 5 -30 11 -31 6 0
51 0 101 0 l90 2 -35 -36 -34 -35 -123 0 -123 0 0 -35 0 -35 140 0 139 0 62
61 61 62 -29 24 -28 25 29 24 28 25 -60 59 -60 60 -141 0 -141 0 0 -34z"/>
<path d="M1010 876 l0 -34 70 0 c39 0 73 -2 76 -4 2 -3 5 -63 7 -134 l2 -129
33 -3 32 -3 0 138 0 138 80 -3 80 -3 0 36 0 35 -190 0 -190 0 0 -34z"/>
</g>
</svg>
